<svg width="24" height="24" viewBox="0 0 24 24"  xmlns="http://www.w3.org/2000/svg">
<path fill-rule="evenodd" clip-rule="evenodd" d="M13 1.5H11V2.552C9.12647 2.748 7.41498 3.48853 6.02665 4.6125L5.28243 3.86827L3.86821 5.28249L4.61245 6.02672C3.48851 7.41504 2.74799 9.1265 2.552 11H1.5V13H2.552C2.74681 14.8622 3.47956 16.5642 4.59207 17.948L3.84537 18.6896L5.25474 20.1087L6.00147 19.367C7.39426 20.5025 9.11512 21.2508 11 21.448V22.5H13V21.448C14.8735 21.252 16.585 20.5115 17.9733 19.3875L18.7175 20.1317L20.1317 18.7175L19.3875 17.9733C20.5115 16.585 21.252 14.8735 21.448 13H22.5V11H21.448C21.2532 9.13787 20.5205 7.43581 19.408 6.05203L20.1547 5.31038L18.7454 3.89133L17.9986 4.633C16.6058 3.49754 14.8849 2.74919 13 2.552V1.5ZM19.5 12C19.5 16.1421 16.1421 19.5 12 19.5C7.85786 19.5 4.5 16.1421 4.5 12C4.5 7.85786 7.85786 4.5 12 4.5C16.1421 4.5 19.5 7.85786 19.5 12ZM8.81802 8.81802C9.56494 8.07109 10.5474 7.61383 11.5909 7.51862L11.4091 5.5269C9.90189 5.66443 8.48274 6.32487 7.40381 7.40381C6.32487 8.48274 5.66443 9.90189 5.5269 11.4091L7.51862 11.5909C7.61384 10.5474 8.07109 9.56494 8.81802 8.81802Z" />
</svg>
