<svg width="48" height="48" viewBox="0 0 48 48"  xmlns="http://www.w3.org/2000/svg">
<path d="M4.83331 26.875C4.83331 31.1958 6.54975 35.3396 9.60503 38.3949C12.6603 41.4502 16.8042 43.1666 21.125 43.1666C25.4458 43.1666 29.5896 41.4502 32.6449 38.3949C35.7002 35.3396 37.4166 31.1958 37.4166 26.875C37.4166 22.5542 35.7002 18.4103 32.6449 15.355C29.5896 12.2998 25.4458 10.5833 21.125 10.5833C16.8042 10.5833 12.6603 12.2998 9.60503 15.355C6.54975 18.4103 4.83331 22.5542 4.83331 26.875Z"  stroke-width="2"/>
<path d="M12.5 26.875C12.5 24.5875 13.4087 22.3937 15.0262 20.7762C16.6437 19.1587 18.8375 18.25 21.125 18.25"  stroke-width="2"/>
<path d="M45.0833 9.625H38.375L32.625 15.375"  stroke-width="2"/>
</svg>
