<svg width="48" height="48" viewBox="0 0 48 48"  xmlns="http://www.w3.org/2000/svg">
<path d="M37.5547 21.2534C37.5543 18.0059 36.5909 14.8315 34.7864 12.1315C32.9819 9.43144 30.4173 7.32713 27.4169 6.08463C24.4165 4.84212 21.1151 4.51723 17.93 5.15101C14.7449 5.7848 11.8193 7.34882 9.52314 9.64528C7.22694 11.9417 5.66327 14.8675 5.02985 18.0527C4.39643 21.2378 4.72172 24.5392 5.96457 27.5395C7.20743 30.5398 9.31203 33.1041 12.0123 34.9083C14.7125 36.7125 17.8871 37.6754 21.1346 37.6754"  stroke-width="2"/>
<path d="M27.9771 18.2692C27.4907 17.155 26.7395 16.1764 25.7889 15.4185C24.8382 14.6607 23.7169 14.1464 22.5223 13.9205C21.3277 13.6946 20.096 13.7639 18.9343 14.1223C17.7726 14.4807 16.716 15.1174 15.8563 15.9771C14.9966 16.8368 14.3599 17.8934 14.0015 19.0551C13.6431 20.2168 13.5738 21.4485 13.7997 22.6431C14.0256 23.8377 14.5399 24.959 15.2977 25.9097C16.0556 26.8603 17.0342 27.6115 18.1484 28.0979"  stroke-width="2"/>
<path d="M22.5625 22.6833L26.6584 41.1178L31.268 36.5101L37.9265 43.1667L43.0478 38.0454L36.3893 31.3888L40.9989 26.7792L22.5625 22.6833Z"  stroke-width="2"/>
</svg>
