<svg width="48" height="48" viewBox="0 0 48 48"  xmlns="http://www.w3.org/2000/svg">
<path d="M4.81415 30.854L7.70832 10.5833H40.2917L43.1858 30.854C43.3022 31.6692 43.2421 32.4999 43.0097 33.2899C42.7772 34.0798 42.3778 34.8107 41.8384 35.4329C41.299 36.0552 40.6323 36.5543 39.8833 36.8965C39.1344 37.2388 38.3206 37.4162 37.4972 37.4167H32.625L29.75 30.7083H18.25L15.375 37.4167H10.5047C9.68095 37.4167 8.86677 37.2397 8.11733 36.8977C7.36789 36.5557 6.70068 36.0567 6.1609 35.4344C5.62111 34.8121 5.22134 34.081 4.98865 33.2908C4.75597 32.5005 4.69581 31.6695 4.81224 30.854H4.81415Z"  stroke-width="2"/>
<path d="M15.375 16.3333V25.9167"  stroke-width="2"/>
<path d="M10.5833 21.125H20.1666"  stroke-width="2"/>
<path d="M36.4583 21.125C36.4583 22.1417 36.0544 23.1167 35.3355 23.8356C34.6166 24.5545 33.6416 24.9584 32.625 24.9584C31.6083 24.9584 30.6333 24.5545 29.9144 23.8356C29.1955 23.1167 28.7916 22.1417 28.7916 21.125C28.7916 20.1084 29.1955 19.1333 29.9144 18.4144C30.6333 17.6956 31.6083 17.2917 32.625 17.2917C33.6416 17.2917 34.6166 17.6956 35.3355 18.4144C36.0544 19.1333 36.4583 20.1084 36.4583 21.125Z"  stroke-width="2"/>
</svg>
