<svg width="48" height="48" viewBox="0 0 48 48"  xmlns="http://www.w3.org/2000/svg">
<path d="M4.83331 24C4.83331 29.0833 6.85265 33.9584 10.4471 37.5529C14.0415 41.1473 18.9167 43.1667 24 43.1667C29.0833 43.1667 33.9584 41.1473 37.5529 37.5529C41.1473 33.9584 43.1666 29.0833 43.1666 24C43.1666 18.9167 41.1473 14.0416 37.5529 10.4471C33.9584 6.85268 29.0833 4.83334 24 4.83334C18.9167 4.83334 14.0415 6.85268 10.4471 10.4471C6.85265 14.0416 4.83331 18.9167 4.83331 24Z"  stroke-width="2"/>
<path d="M18.25 21.125H24V32.625"  stroke-width="2"/>
<path d="M18.25 32.625H29.75"  stroke-width="2"/>
<path d="M24 16.3333V13.4583"  stroke-width="2"/>
</svg>
