<svg width="48" height="48" viewBox="0 0 48 48"  xmlns="http://www.w3.org/2000/svg">
<path d="M2 41.1887C9.46293 28.4465 16.8874 15.7612 24.3503 3C31.8133 15.7233 39.257 28.4086 46.7391 41.1698C46.3544 41.1698 46.0275 41.1698 45.7005 41.1698C43.3347 41.1698 40.9496 41.1698 38.5838 41.1698C38.3145 41.1698 38.1798 41.0749 38.0644 40.8664C33.5444 33.149 29.0051 25.4316 24.485 17.7332C24.4273 17.6194 24.3503 17.5246 24.2542 17.354C23.9656 17.847 23.6964 18.2831 23.4271 18.7381C19.1763 26.0194 14.9063 33.3007 10.6747 40.6009C10.4054 41.0749 10.1169 41.2077 9.59757 41.2077C7.23175 41.1698 4.84669 41.1887 2.48086 41.1887C2.34622 41.1887 2.21158 41.1887 2 41.1887Z" />
<path d="M13.406 44.981C17.0221 38.7806 20.6381 32.637 24.2734 26.4176C27.9279 32.637 31.544 38.7995 35.1793 44.981C27.9087 44.981 20.6958 44.981 13.406 44.981Z" />
</svg>
