<svg width="48" height="48" viewBox="0 0 48 48"  xmlns="http://www.w3.org/2000/svg">
<path fill-rule="evenodd" clip-rule="evenodd" d="M26 3H22V5.10401C18.2529 5.496 14.83 6.97707 12.0533 9.225L10.5649 7.73654L7.73642 10.565L9.22489 12.0534C6.97702 14.8301 5.49599 18.253 5.10401 22H3V26H5.10401C5.49362 29.7243 6.95912 33.1285 9.18414 35.896L7.69075 37.3792L10.5095 40.2173L12.0029 38.7341C14.7885 41.005 18.2302 42.5016 22 42.896V45H26V42.896C29.747 42.504 33.1699 41.023 35.9466 38.7751L37.435 40.2635L40.2634 37.4351L38.775 35.9467C41.0229 33.17 42.504 29.747 42.896 26H45V22H42.896C42.5064 18.2757 41.0409 14.8716 38.8159 12.1041L40.3094 10.6208L37.4907 7.78265L35.9972 9.26601C33.2116 6.99508 29.7698 5.49837 26 5.10401V3ZM41 24C41 33.3888 33.3888 41 24 41C14.6112 41 7 33.3888 7 24C7 14.6112 14.6112 7 24 7C33.3888 7 41 14.6112 41 24ZM16.9289 16.9289C18.5888 15.2691 20.7721 14.253 23.0909 14.0414L22.9091 12.0497C20.1266 12.3036 17.5066 13.5228 15.5147 15.5147C13.5229 17.5066 12.3036 20.1266 12.0497 22.9091L14.0414 23.0909C14.253 20.7721 15.2691 18.5888 16.9289 16.9289Z" />
</svg>
