<svg width="48" height="48" viewBox="0 0 48 48"  xmlns="http://www.w3.org/2000/svg">
<path d="M4.83331 24C4.83331 29.0833 6.85265 33.9584 10.4471 37.5529C14.0415 41.1473 18.9167 43.1667 24 43.1667C29.0833 43.1667 33.9584 41.1473 37.5529 37.5529C41.1473 33.9584 43.1666 29.0833 43.1666 24C43.1666 18.9167 41.1473 14.0416 37.5529 10.4471C33.9584 6.85268 29.0833 4.83334 24 4.83334C18.9167 4.83334 14.0415 6.85268 10.4471 10.4471C6.85265 14.0416 4.83331 18.9167 4.83331 24Z"  stroke-width="2"/>
<path d="M29.037 15.8139C30.819 16.9106 32.1943 18.559 32.9542 20.5086C33.714 22.4581 33.8167 24.6024 33.2468 26.6158C32.677 28.6291 31.4655 30.4014 29.7966 31.6635C28.1277 32.9256 26.0924 33.6085 24 33.6085C21.9076 33.6085 19.8723 32.9256 18.2034 31.6635C16.5345 30.4014 15.323 28.6291 14.7532 26.6158C14.1833 24.6024 14.286 22.4581 15.0458 20.5086C15.8057 18.559 17.181 16.9106 18.963 15.8139"  stroke-width="2"/>
<path d="M24 10.6868V18.3401"  stroke-width="2"/>
</svg>
