<svg width="48" height="48" viewBox="0 0 48 48"  xmlns="http://www.w3.org/2000/svg">
<path d="M25.2707 14.4167C25.7551 13.3942 25.9731 12.2658 25.9042 11.1364C25.8354 10.0071 25.482 8.91354 24.877 7.95746C24.272 7.00137 23.435 6.21384 22.4439 5.66813C21.4528 5.12241 20.3397 4.83624 19.2083 4.83624C18.0769 4.83624 16.9638 5.12241 15.9727 5.66813C14.9816 6.21384 14.1446 7.00137 13.5396 7.95746C12.9346 8.91354 12.5812 10.0071 12.5124 11.1364C12.4436 12.2658 12.6615 13.3942 13.1459 14.4167H4.83331V21.1921C5.78462 21.0565 6.75394 21.1269 7.67568 21.3985C8.59741 21.6701 9.45004 22.1365 10.1759 22.7663C10.9017 23.396 11.4837 24.1743 11.8826 25.0485C12.2815 25.9227 12.488 26.8724 12.488 27.8333C12.488 28.7942 12.2815 29.7439 11.8826 30.6181C11.4837 31.4923 10.9017 32.2707 10.1759 32.9004C9.45004 33.5301 8.59741 33.9965 7.67568 34.2681C6.75394 34.5397 5.78462 34.6101 4.83331 34.4746V43.1667H13.5254C13.3898 42.2154 13.4602 41.246 13.7318 40.3243C14.0034 39.4026 14.4699 38.5499 15.0996 37.8241C15.7293 37.0983 16.5076 36.5162 17.3818 36.1173C18.256 35.7184 19.2057 35.512 20.1666 35.512C21.1276 35.512 22.0773 35.7184 22.9515 36.1173C23.8257 36.5162 24.604 37.0983 25.2337 37.8241C25.8634 38.5499 26.3299 39.4026 26.6015 40.3243C26.873 41.246 26.9434 42.2154 26.8079 43.1667H33.5833V34.8541C34.6058 35.3385 35.7342 35.5564 36.8635 35.4876C37.9929 35.4187 39.0864 35.0654 40.0425 34.4604C40.9986 33.8554 41.7861 33.0184 42.3318 32.0272C42.8776 31.0361 43.1637 29.9231 43.1637 28.7917C43.1637 27.6602 42.8776 26.5472 42.3318 25.5561C41.7861 24.5649 40.9986 23.7279 40.0425 23.1229C39.0864 22.5179 37.9929 22.1646 36.8635 22.0957C35.7342 22.0269 34.6058 22.2448 33.5833 22.7292V14.4167H25.2707Z"  stroke-width="2"/>
</svg>
