<svg width="24" height="24" viewBox="0 0 24 24"  xmlns="http://www.w3.org/2000/svg">
<path d="M16.3125 20.0203C17.7614 19.2412 18.9721 18.084 19.8158 16.6718C20.6595 15.2596 21.1048 13.6451 21.1041 12H2.89581C2.89519 13.6451 3.34042 15.2596 4.18415 16.6718C5.02788 18.084 6.23857 19.2412 7.68748 20.0203V21.5833H16.3125V20.0203Z"  stroke-width="2"/>
<path d="M10.5218 3L9.76092 3.57712C9.52766 3.75396 9.34262 3.96393 9.21637 4.19503C9.09012 4.42613 9.02515 4.67383 9.02515 4.92397C9.02515 5.17412 9.09012 5.42182 9.21637 5.65292C9.34262 5.88401 9.52766 6.09398 9.76092 6.27083C9.99418 6.44767 10.1792 6.65764 10.3055 6.88874C10.4317 7.11984 10.4967 7.36753 10.4967 7.61768C10.4967 7.86783 10.4317 8.11553 10.3055 8.34663C10.1792 8.57772 9.99418 8.78769 9.76092 8.96454L9 9.54166"  stroke-width="2"/>
<path d="M15.3135 3L14.5526 3.57712C14.3193 3.75396 14.1343 3.96393 14.0081 4.19503C13.8818 4.42613 13.8168 4.67383 13.8168 4.92397C13.8168 5.17412 13.8818 5.42182 14.0081 5.65292C14.1343 5.88401 14.3193 6.09398 14.5526 6.27083C14.7859 6.44767 14.9709 6.65764 15.0972 6.88874C15.2234 7.11984 15.2884 7.36753 15.2884 7.61768C15.2884 7.86783 15.2234 8.11553 15.0972 8.34663C14.9709 8.57772 14.7859 8.78769 14.5526 8.96454L13.7917 9.54166"  stroke-width="2"/>
</svg>
