<svg width="24" height="24" viewBox="0 0 24 24"  xmlns="http://www.w3.org/2000/svg">
<path d="M9.125 12C9.125 12.7625 9.4279 13.4938 9.96707 14.0329C10.5062 14.5721 11.2375 14.875 12 14.875C12.7625 14.875 13.4938 14.5721 14.0329 14.0329C14.5721 13.4938 14.875 12.7625 14.875 12C14.875 11.2375 14.5721 10.5062 14.0329 9.96707C13.4938 9.4279 12.7625 9.125 12 9.125C11.2375 9.125 10.5062 9.4279 9.96707 9.96707C9.4279 10.5062 9.125 11.2375 9.125 12Z"  stroke-width="2"/>
<path d="M14.3958 2.41666H9.60416V4.71474C8.60135 5.04508 7.67767 5.57919 6.89112 6.28353L4.89779 5.13353L2.50195 9.28311L4.49337 10.4331C4.27854 11.4667 4.27854 12.5333 4.49337 13.5669L2.50291 14.7169L4.89874 18.8664L6.89112 17.7164C7.67739 18.4207 8.60073 18.9548 9.6032 19.2852V21.5833H14.3949V19.2852C15.398 18.955 16.322 18.4209 17.1089 17.7164L19.1022 18.8664L21.498 14.7169L19.5066 13.5669C19.7213 12.5333 19.7213 11.4667 19.5066 10.4331L21.4971 9.28311L19.1012 5.13353L17.1089 6.28353C16.3223 5.57919 15.3986 5.04508 14.3958 4.71474V2.41666Z"  stroke-width="2"/>
</svg>
