<svg width="24" height="24" viewBox="0 0 24 24"  xmlns="http://www.w3.org/2000/svg">
<path d="M9.86158 18.9293V17.2825L10.0829 16.3414L8.0198 15.917L6.32248 13.5735V10.3811L7.11697 9.31088L7.20725 6.80129L9.86158 7.81619H14.2855L16.9398 6.80129L17.0301 9.31088L17.8246 10.3811V13.5735L16.1272 15.917L14 16.3414L14.2855 17.2825V21.1538L19.0374 21.165C20.2063 21.165 21.1539 20.164 21.1539 18.9293L21.165 5.23569C21.165 4.00095 20.2227 3 19.0538 3H5.11652C3.9476 3 3 4.00095 3 5.23569L3.01637 18.9293C3.01637 20.164 3.96397 21.165 5.13289 21.165L9.38618 21.1477H9.86158V18.9293ZM9.86158 18.9293C9.86158 18.9293 6.75 19.6473 6.75 18.25C6.75 17.25 4.75 17.2825 4.75 17.2825"  stroke-width="2"/>
</svg>
