<svg width="32" height="32" viewBox="0 0 32 32"  xmlns="http://www.w3.org/2000/svg">
<path d="M13.1488 25.2391V23.0434L13.4439 21.7886L10.6931 21.2227L8.42997 18.098V13.8415L9.48929 12.4145L9.60967 9.06838L13.1488 10.4216H19.0473L22.5864 9.06838L22.7068 12.4145L23.7661 13.8415V18.098L21.503 21.2227L18.6667 21.7886L19.0473 23.0434V28.2051L25.3832 28.22C26.9418 28.22 28.2052 26.8854 28.2052 25.2391L28.22 6.98092C28.22 5.3346 26.9636 4 25.405 4H6.82202C5.26346 4 4 5.3346 4 6.98092L4.02183 25.2391C4.02183 26.8854 5.2853 28.22 6.84385 28.22L12.5149 28.197H13.1488V25.2391ZM13.1488 25.2391C13.1488 25.2391 9 26.1964 9 24.3333C9 23 6.33333 23.0434 6.33333 23.0434"  stroke-width="2"/>
</svg>
