<svg width="48" height="48" viewBox="0 0 48 48"  xmlns="http://www.w3.org/2000/svg">
<path d="M19.7232 37.8586V34.565L20.1659 32.6828L16.0396 31.834L12.645 27.147V20.7623L14.2339 18.6218L14.4145 13.6026L19.7232 15.6324H28.5709L33.8796 13.6026L34.0602 18.6218L35.6491 20.7623V27.147L32.2545 31.834L28 32.6828L28.5709 34.565V42.3076L38.0748 42.33C40.4126 42.33 42.3078 40.3281 42.3078 37.8586L42.33 10.4714C42.33 8.00191 40.4454 6 38.1075 6H10.233C7.89519 6 6 8.00191 6 10.4714L6.03275 37.8586C6.03275 40.3281 7.92794 42.33 10.2658 42.33L18.7724 42.2955H19.7232V37.8586ZM19.7232 37.8586C19.7232 37.8586 13.5 39.2946 13.5 36.5C13.5 34.5 9.5 34.565 9.5 34.565"  stroke-width="2"/>
</svg>
