<svg width="24" height="24" viewBox="0 0 24 24"  xmlns="http://www.w3.org/2000/svg">
<path d="M12.6354 7.20833C12.8776 6.69708 12.9866 6.13289 12.9521 5.56822C12.9177 5.00356 12.741 4.45677 12.4385 3.97873C12.136 3.50069 11.7175 3.10692 11.222 2.83406C10.7264 2.56121 10.1699 2.41812 9.60419 2.41812C9.03847 2.41812 8.48195 2.56121 7.98639 2.83406C7.49083 3.10692 7.07233 3.50069 6.76983 3.97873C6.46733 4.45677 6.29065 5.00356 6.25623 5.56822C6.22182 6.13289 6.33078 6.69708 6.57298 7.20833H2.41669V10.596C2.89234 10.5283 3.377 10.5635 3.83787 10.6993C4.29874 10.8351 4.72505 11.0683 5.08796 11.3831C5.45087 11.698 5.7419 12.0871 5.94135 12.5243C6.1408 12.9614 6.24402 13.4362 6.24402 13.9167C6.24402 14.3971 6.1408 14.872 5.94135 15.3091C5.7419 15.7462 5.45087 16.1353 5.08796 16.4502C4.72505 16.765 4.29874 16.9983 3.83787 17.1341C3.377 17.2699 2.89234 17.3051 2.41669 17.2373V21.5833H6.76273C6.69495 21.1077 6.73015 20.623 6.86595 20.1621C7.00175 19.7013 7.23497 19.275 7.54983 18.9121C7.86469 18.5491 8.25384 18.2581 8.69094 18.0587C9.12805 17.8592 9.6029 17.756 10.0834 17.756C10.5638 17.756 11.0387 17.8592 11.4758 18.0587C11.9129 18.2581 12.302 18.5491 12.6169 18.9121C12.9317 19.275 13.165 19.7013 13.3008 20.1621C13.4366 20.623 13.4718 21.1077 13.404 21.5833H16.7917V17.427C17.3029 17.6692 17.8671 17.7782 18.4318 17.7438C18.9965 17.7094 19.5432 17.5327 20.0213 17.2302C20.4993 16.9277 20.8931 16.5092 21.166 16.0136C21.4388 15.5181 21.5819 14.9615 21.5819 14.3958C21.5819 13.8301 21.4388 13.2736 21.166 12.778C20.8931 12.2825 20.4993 11.864 20.0213 11.5615C19.5432 11.259 18.9965 11.0823 18.4318 11.0479C17.8671 11.0135 17.3029 11.1224 16.7917 11.3646V7.20833H12.6354Z"  stroke-width="2"/>
</svg>
