<svg width="48" height="48" viewBox="0 0 48 48"  xmlns="http://www.w3.org/2000/svg">
<path d="M25.2708 14.4167C25.7552 13.3942 25.9731 12.2658 25.9043 11.1364C25.8354 10.0071 25.4821 8.91354 24.8771 7.95746C24.2721 7.00137 23.4351 6.21384 22.444 5.66813C21.4528 5.12241 20.3398 4.83624 19.2084 4.83624C18.0769 4.83624 16.9639 5.12241 15.9728 5.66813C14.9817 6.21384 14.1447 7.00137 13.5397 7.95746C12.9347 8.91354 12.5813 10.0071 12.5125 11.1364C12.4436 12.2658 12.6616 13.3942 13.146 14.4167H4.83337V21.1921C5.78468 21.0565 6.754 21.1269 7.67574 21.3985C8.59747 21.6701 9.4501 22.1365 10.1759 22.7663C10.9017 23.396 11.4838 24.1743 11.8827 25.0485C12.2816 25.9227 12.488 26.8724 12.488 27.8333C12.488 28.7942 12.2816 29.7439 11.8827 30.6181C11.4838 31.4923 10.9017 32.2707 10.1759 32.9004C9.4501 33.5301 8.59747 33.9965 7.67574 34.2681C6.754 34.5397 5.78468 34.6101 4.83337 34.4746V43.1667H13.5255C13.3899 42.2154 13.4603 41.246 13.7319 40.3243C14.0035 39.4026 14.4699 38.5499 15.0997 37.8241C15.7294 37.0983 16.5077 36.5162 17.3819 36.1173C18.2561 35.7184 19.2058 35.512 20.1667 35.512C21.1276 35.512 22.0773 35.7184 22.9515 36.1173C23.8257 36.5162 24.604 37.0983 25.2338 37.8241C25.8635 38.5499 26.3299 39.4026 26.6015 40.3243C26.8731 41.246 26.9435 42.2154 26.808 43.1667H33.5834V34.8541C34.6059 35.3385 35.7343 35.5564 36.8636 35.4876C37.9929 35.4187 39.0865 35.0654 40.0426 34.4604C40.9987 33.8554 41.7862 33.0184 42.3319 32.0272C42.8776 31.0361 43.1638 29.9231 43.1638 28.7917C43.1638 27.6602 42.8776 26.5472 42.3319 25.5561C41.7862 24.5649 40.9987 23.7279 40.0426 23.1229C39.0865 22.5179 37.9929 22.1646 36.8636 22.0957C35.7343 22.0269 34.6059 22.2448 33.5834 22.7292V14.4167H25.2708Z"  stroke-width="2"/>
</svg>
