<svg width="24" height="24" viewBox="0 0 24 24"  xmlns="http://www.w3.org/2000/svg">
<path d="M18.7773 10.6267C18.7771 9.00294 18.2955 7.4157 17.3932 6.0657C16.491 4.71569 15.2087 3.66354 13.7085 3.04228C12.2083 2.42103 10.5575 2.25858 8.965 2.57548C7.37247 2.89237 5.90967 3.67438 4.76157 4.82261C3.61347 5.97084 2.83163 7.43373 2.51493 9.0263C2.19822 10.6189 2.36086 12.2696 2.98229 13.7697C3.60371 15.2698 4.65602 16.552 6.00613 17.4541C7.35624 18.3562 8.94353 18.8377 10.5673 18.8377"  stroke-width="2"/>
<path d="M13.9886 9.13459C13.7454 8.57748 13.3698 8.0882 12.8945 7.70927C12.4192 7.33033 11.8585 7.07322 11.2612 6.96027C10.6639 6.84732 10.0481 6.88195 9.46719 7.06115C8.88633 7.24036 8.35802 7.55871 7.92819 7.98855C7.49835 8.41838 7.18 8.94669 7.00079 9.52756C6.82159 10.1084 6.78695 10.7243 6.8999 11.3216C7.01285 11.9188 7.26997 12.4795 7.6489 12.9548C8.02784 13.4301 8.51712 13.8057 9.07423 14.0489"  stroke-width="2"/>
<path d="M11.2812 11.3416L13.3292 20.5589L15.634 18.255L18.9632 21.5833L21.5239 19.0227L18.1947 15.6944L20.4995 13.3896L11.2812 11.3416Z"  stroke-width="2"/>
</svg>
