<svg width="32" height="32" viewBox="0 0 32 32"  xmlns="http://www.w3.org/2000/svg">
<path d="M25.0364 14.169C25.0361 12.004 24.3939 9.88765 23.1909 8.08764C21.9879 6.28762 20.2782 4.88475 18.2779 4.05642C16.2776 3.22808 14.0767 3.01148 11.9533 3.43401C9.82992 3.85654 7.87952 4.89921 6.34872 6.43019C4.81792 7.96117 3.77547 9.91169 3.35319 12.0351C2.93092 14.1585 3.14777 16.3595 3.97634 18.3597C4.80491 20.3598 6.20798 22.0694 8.00813 23.2722C9.80828 24.475 11.9247 25.117 14.0897 25.117"  stroke-width="2"/>
<path d="M18.6514 12.1794C18.3271 11.4366 17.8263 10.7842 17.1926 10.279C16.5588 9.77376 15.8113 9.43094 15.0149 9.28034C14.2185 9.12974 13.3974 9.17591 12.6229 9.41485C11.8484 9.65379 11.144 10.0783 10.5709 10.6514C9.99776 11.2245 9.57329 11.9289 9.33435 12.7034C9.09541 13.4779 9.04923 14.299 9.19983 15.0954C9.35043 15.8918 9.69325 16.6393 10.1985 17.2731C10.7037 17.9068 11.3561 18.4076 12.0989 18.7319"  stroke-width="2"/>
<path d="M15.0416 15.1222L17.7722 27.4119L20.8453 24.3401L25.2843 28.7778L28.6985 25.3636L24.2595 20.9259L27.3326 17.8528L15.0416 15.1222Z"  stroke-width="2"/>
</svg>
