<svg width="48" height="48" viewBox="0 0 48 48"  xmlns="http://www.w3.org/2000/svg">
<path d="M4.83337 24C4.83337 29.0833 6.85271 33.9584 10.4472 37.5529C14.0416 41.1473 18.9167 43.1667 24 43.1667C29.0834 43.1667 33.9585 41.1473 37.5529 37.5529C41.1474 33.9584 43.1667 29.0833 43.1667 24C43.1667 18.9167 41.1474 14.0416 37.5529 10.4471C33.9585 6.85268 29.0834 4.83334 24 4.83334C18.9167 4.83334 14.0416 6.85268 10.4472 10.4471C6.85271 14.0416 4.83337 18.9167 4.83337 24Z"  stroke-width="2"/>
<path d="M29.0371 15.8139C30.819 16.9106 32.1944 18.559 32.9542 20.5086C33.714 22.4581 33.8168 24.6024 33.2469 26.6158C32.677 28.6291 31.4656 30.4014 29.7967 31.6635C28.1277 32.9256 26.0925 33.6085 24.0001 33.6085C21.9076 33.6085 19.8724 32.9256 18.2035 31.6635C16.5345 30.4014 15.3231 28.6291 14.7532 26.6158C14.1833 24.6024 14.2861 22.4581 15.0459 20.5086C15.8057 18.559 17.1811 16.9106 18.9631 15.8139"  stroke-width="2"/>
<path d="M24 10.6868V18.3401"  stroke-width="2"/>
</svg>
