<svg width="32" height="32" viewBox="0 0 32 32"  xmlns="http://www.w3.org/2000/svg">
<path d="M27.202 7.10567C27.1065 6.92775 27.0096 6.76379 26.9158 6.61836C26.7535 6.36651 26.6005 6.17026 26.48 6.05341C25.677 5.13009 24.6098 4.47566 23.4228 4.17864C22.2357 3.88162 20.986 3.95634 19.8428 4.39268C18.6996 4.82902 17.718 5.60594 17.0307 6.61836C16.3434 7.63078 15.9836 8.82986 16 10.0534V11.3867C13.6569 11.4475 11.3351 10.9278 9.24139 9.874C7.1477 8.82018 5.34713 7.26494 4.00004 5.34676C4.00004 5.34676 -1.33329 17.3467 10.6667 22.6801C7.92074 24.544 4.64958 25.4652 1.33337 25.3333C13.3334 32 28 25.3467 28 10.0134C27.9988 9.64201 27.9631 9.27153 27.8934 8.90674C27.7483 8.26347 27.4809 7.6251 27.202 7.10567ZM27.202 7.10567L30 4.66667"  stroke-width="2" stroke-linecap="square"/>
</svg>
