<svg width="24" height="24" viewBox="0 0 24 24"  xmlns="http://www.w3.org/2000/svg">
<path d="M2.41669 2.41669H21.5834V21.5834H2.41669V2.41669Z"  stroke-width="2"/>
<path d="M7.6875 12C7.6875 12.5663 7.79905 13.1271 8.01577 13.6503C8.23249 14.1735 8.55015 14.6489 8.9506 15.0494C9.35105 15.4499 9.82646 15.7675 10.3497 15.9842C10.8729 16.201 11.4337 16.3125 12 16.3125C12.5663 16.3125 13.1271 16.201 13.6503 15.9842C14.1735 15.7675 14.6489 15.4499 15.0494 15.0494C15.4499 14.6489 15.7675 14.1735 15.9842 13.6503C16.201 13.1271 16.3125 12.5663 16.3125 12C16.3125 11.4337 16.201 10.8729 15.9842 10.3497C15.7675 9.82646 15.4499 9.35105 15.0494 8.9506C14.6489 8.55015 14.1735 8.23249 13.6503 8.01577C13.1271 7.79905 12.5663 7.6875 12 7.6875C11.4337 7.6875 10.8729 7.79905 10.3497 8.01577C9.82646 8.23249 9.35105 8.55015 8.9506 8.9506C8.55015 9.35105 8.23249 9.82646 8.01577 10.3497C7.79905 10.8729 7.6875 11.4337 7.6875 12Z"  stroke-width="2"/>
<path d="M17.2709 5.77087H17.75V6.25004H17.2709V5.77087Z"  stroke-width="2"/>
</svg>
