<svg width="48" height="48" viewBox="0 0 48 48"  xmlns="http://www.w3.org/2000/svg">
<path d="M4.83337 4.83331H43.1667V43.1666H4.83337V4.83331Z"  stroke-width="2"/>
<path d="M15.375 24C15.375 25.1327 15.5981 26.2542 16.0315 27.3006C16.465 28.3471 17.1003 29.2979 17.9012 30.0988C18.7021 30.8997 19.6529 31.535 20.6994 31.9685C21.7458 32.4019 22.8673 32.625 24 32.625C25.1327 32.625 26.2542 32.4019 27.3006 31.9685C28.3471 31.535 29.2979 30.8997 30.0988 30.0988C30.8997 29.2979 31.535 28.3471 31.9685 27.3006C32.4019 26.2542 32.625 25.1327 32.625 24C32.625 22.8673 32.4019 21.7458 31.9685 20.6994C31.535 19.6529 30.8997 18.7021 30.0988 17.9012C29.2979 17.1003 28.3471 16.465 27.3006 16.0315C26.2542 15.5981 25.1327 15.375 24 15.375C22.8673 15.375 21.7458 15.5981 20.6994 16.0315C19.6529 16.465 18.7021 17.1003 17.9012 17.9012C17.1003 18.7021 16.465 19.6529 16.0315 20.6994C15.5981 21.7458 15.375 22.8673 15.375 24Z"  stroke-width="2"/>
<path d="M34.5417 11.5416H35.5001V12.5H34.5417V11.5416Z"  stroke-width="2"/>
</svg>
